<?xml version="1.0" encoding="UTF-8"?>
<svg width="160px" height="160px" viewBox="0 0 160 160" version="1.1" xmlns="http://www.w3.org/2000/svg" xmlns:xlink="http://www.w3.org/1999/xlink">
    <title>wspr-beakon-logo copy</title>
    <g id="Page-1" stroke="none" stroke-width="1" fill="none" fill-rule="evenodd">
        <g id="wspr-beakon-logo-copy" transform="translate(10.000000, 50.000000)" fill="#212E2D" fill-rule="nonzero">
            <path d="M49.9595,4.488 C49.9595,5.544 49.7101667,6.46066667 49.2115,7.238 C48.7128333,8.01533333 48.0895,8.602 47.3415,8.998 C46.5935,9.394 45.8675,9.592 45.1635,9.592 C44.4888333,9.592 43.8508333,9.42333333 43.2495,9.086 C42.6481667,8.74866667 42.2595,8.36 42.0835,7.92 L31.3915,25.784 C30.5701667,27.1626667 29.8295,28.138 29.1695,28.71 C28.5095,29.282 27.7541667,29.568 26.9035,29.568 C24.9381667,29.568 23.8235,28.3066667 23.5595,25.784 L22.1515,12.848 L13.2635,25.784 C12.2368333,27.28 11.4081667,28.2846667 10.7775,28.798 C10.1468333,29.3113333 9.42083333,29.568 8.5995,29.568 C6.81016667,29.568 5.72483333,28.16 5.3435,25.344 L2.5275,5.456 C2.4395,4.86933333 2.27083333,4.4 2.0215,4.048 C1.77216667,3.696 1.45683333,3.35866667 1.0755,3.036 C0.8115,2.80133333 0.620833333,2.60333333 0.5035,2.442 C0.386166667,2.28066667 0.3275,2.09733333 0.3275,1.892 C0.180833333,0.806666667 0.826166667,0.264 2.2635,0.264 L13.2195,0.264 C13.8941667,0.264 14.4001667,0.403333333 14.7375,0.682 C15.0748333,0.960666667 15.2288333,1.33466667 15.1995,1.804 C15.1995,2.03866667 15.1335,2.266 15.0015,2.486 C14.8695,2.706 14.7301667,2.904 14.5835,3.08 C14.2608333,3.432 14.0261667,3.76933333 13.8795,4.092 C13.7328333,4.41466667 13.6888333,4.84 13.7475,5.368 L14.8915,15.972 L21.4915,6.512 L21.3595,5.456 C21.3008333,4.89866667 21.1541667,4.444 20.9195,4.092 C20.6848333,3.74 20.3621667,3.40266667 19.9515,3.08 C19.6581667,2.816 19.4528333,2.60333333 19.3355,2.442 C19.2181667,2.28066667 19.1595,2.09733333 19.1595,1.892 C19.0128333,0.806666667 19.6581667,0.264 21.0955,0.264 L32.0955,0.264 C32.7701667,0.264 33.2835,0.403333333 33.6355,0.682 C33.9875,0.960666667 34.1488333,1.33466667 34.1195,1.804 C34.1195,2.18533333 33.9141667,2.61066667 33.5035,3.08 C33.2101667,3.432 32.9901667,3.76933333 32.8435,4.092 C32.6968333,4.41466667 32.6381667,4.84 32.6675,5.368 L33.1955,14.96 L39.1355,4.576 C40.1035,2.904 41.0421667,1.738 41.9515,1.078 C42.8608333,0.418 44.0488333,0.088 45.5155,0.088 C46.8355,0.088 47.9061667,0.484 48.7275,1.276 C49.5488333,2.068 49.9595,3.13866667 49.9595,4.488 Z" id="Path"></path>
            <path d="M61.9715,0 C63.6141667,0 65.1321667,0.198 66.5255,0.594 C67.9188333,0.99 69.3341667,1.61333333 70.7715,2.464 L71.7835,1.628 C72.4875,1.07066667 73.0668333,0.689333333 73.5215,0.484 C73.9761667,0.278666667 74.4968333,0.176 75.0835,0.176 C75.7875,0.176 76.3448333,0.33 76.7555,0.638 C77.1661667,0.946 77.3715,1.39333333 77.3715,1.98 C77.3715,2.21466667 77.3275,2.464 77.2395,2.728 L75.3915,8.8 C75.1861667,9.504 74.9295,10.0026667 74.6215,10.296 C74.3135,10.5893333 73.8515,10.736 73.2355,10.736 C72.5901667,10.736 72.0255,10.538 71.5415,10.142 C71.0575,9.746 70.3021667,8.932 69.2755,7.7 C68.2488333,6.52666667 67.3175,5.698 66.4815,5.214 C65.6455,4.73 64.7875,4.488 63.9075,4.488 C63.2621667,4.488 62.7195,4.70066667 62.2795,5.126 C61.8395,5.55133333 61.6195,6.072 61.6195,6.688 C61.6195,7.392 61.9715,8.04466667 62.6755,8.646 C63.3795,9.24733333 64.4795,10.0026667 65.9755,10.912 C67.5008333,11.8213333 68.7621667,12.6426667 69.7595,13.376 C70.7568333,14.1093333 71.6075,15.0186667 72.3115,16.104 C73.0155,17.1893333 73.3675,18.436 73.3675,19.844 C73.3675,20.7533333 73.2208333,21.6626667 72.9275,22.572 C72.2235,24.9186667 70.8595,26.7006667 68.8355,27.918 C66.8115,29.1353333 64.4501667,29.744 61.7515,29.744 C59.7275,29.744 58.0261667,29.5093333 56.6475,29.04 C55.2688333,28.5706667 53.8608333,27.7786667 52.4235,26.664 L50.8395,27.984 C50.1061667,28.6 49.5048333,29.018 49.0355,29.238 C48.5661667,29.458 48.0381667,29.568 47.4515,29.568 C46.7768333,29.568 46.2415,29.4066667 45.8455,29.084 C45.4495,28.7613333 45.2515,28.3213333 45.2515,27.764 C45.2515,27.4706667 45.3101667,27.1626667 45.4275,26.84 L47.5835,20.284 C47.8181667,19.5213333 48.1408333,18.9786667 48.5515,18.656 C48.9621667,18.3333333 49.4901667,18.172 50.1355,18.172 C50.8101667,18.172 51.4188333,18.4066667 51.9615,18.876 C52.5041667,19.3453333 53.2155,20.196 54.0955,21.428 C55.0341667,22.7773333 55.9068333,23.716 56.7135,24.244 C57.5201667,24.772 58.4808333,25.036 59.5955,25.036 C60.3875,25.036 60.9961667,24.9113333 61.4215,24.662 C61.8468333,24.4126667 62.1475,24.0093333 62.3235,23.452 C62.3821667,23.3053333 62.4115,23.0853333 62.4115,22.792 C62.4115,22.088 62.0741667,21.4426667 61.3995,20.856 C60.7248333,20.2693333 59.6835,19.5653333 58.2755,18.744 C56.7795,17.8346667 55.5621667,17.0206667 54.6235,16.302 C53.6848333,15.5833333 52.8708333,14.6813333 52.1815,13.596 C51.4921667,12.5106667 51.1475,11.2346667 51.1475,9.768 C51.1475,8.74133333 51.3088333,7.72933333 51.6315,6.732 C52.2475,4.708 53.5088333,3.08 55.4155,1.848 C57.3221667,0.616 59.5075,0 61.9715,0 Z" id="Path"></path>
            <path d="M99.1075,0.264 C102.216833,0.264 104.614833,0.938666667 106.3015,2.288 C107.988167,3.63733333 108.8315,5.42666667 108.8315,7.656 C108.8315,8.536 108.6995,9.46 108.4355,10.428 C107.614167,13.3613333 105.9935,15.532 103.5735,16.94 C101.1535,18.348 98.0955,19.052 94.3995,19.052 L89.8675,19.052 L88.3715,24.376 C88.3128333,24.552 88.2835,24.7866667 88.2835,25.08 C88.2835,25.4906667 88.3788333,25.828 88.5695,26.092 C88.7601667,26.356 89.0461667,26.664 89.4275,27.016 C89.7501667,27.3093333 89.9701667,27.5293333 90.0875,27.676 C90.2048333,27.8226667 90.2635,27.9986667 90.2635,28.204 C90.2635,28.7026667 90.0288333,29.0546667 89.5595,29.26 C89.0901667,29.4653333 88.4008333,29.568 87.4915,29.568 L76.4475,29.568 C75.6848333,29.568 75.1128333,29.4286667 74.7315,29.15 C74.3501667,28.8713333 74.2181667,28.4826667 74.3355,27.984 C74.3941667,27.72 74.5041667,27.5073333 74.6655,27.346 C74.8268333,27.1846667 75.0688333,27.0013333 75.3915,26.796 C75.8901667,26.5026667 76.2861667,26.1946667 76.5795,25.872 C76.8728333,25.5493333 77.1075,25.0506667 77.2835,24.376 L82.6515,5.412 C82.7688333,5.03066667 82.8275,4.664 82.8275,4.312 C82.8275,3.98933333 82.7761667,3.718 82.6735,3.498 C82.5708333,3.278 82.4315,3.02133333 82.2555,2.728 C81.9915,2.34666667 81.8595,2.03866667 81.8595,1.804 C81.8595,1.716 81.8888333,1.55466667 81.9475,1.32 C82.0648333,0.938666667 82.3215,0.667333333 82.7175,0.506 C83.1135,0.344666667 83.7221667,0.264 84.5435,0.264 L99.1075,0.264 Z M97.9635,9.636 C98.2861667,8.55066667 98.4475,7.59733333 98.4475,6.776 C98.4475,5.07466667 97.6555,4.224 96.0715,4.224 L94.0915,4.224 L90.9675,15.092 L92.9035,15.092 C94.1355,15.092 95.1401667,14.7033333 95.9175,13.926 C96.6948333,13.1486667 97.3768333,11.7186667 97.9635,9.636 Z" id="Shape"></path>
            <path d="M139.0595,9.196 C138.590167,10.8973333 137.710167,12.2246667 136.4195,13.178 C135.128833,14.1313333 133.500833,14.7253333 131.5355,14.96 C132.9435,15.0773333 133.9995,15.488 134.7035,16.192 C135.4075,16.896 135.7595,17.82 135.7595,18.964 C135.7595,19.404 135.686167,19.9466667 135.5395,20.592 L135.0555,22.748 C134.996833,23.0413333 134.9675,23.2466667 134.9675,23.364 C134.9675,23.7453333 135.0555,24.0313333 135.2315,24.222 C135.4075,24.4126667 135.656833,24.508 135.9795,24.508 C136.5955,24.508 137.042833,24.596 137.3215,24.772 C137.600167,24.948 137.6955,25.2706667 137.6075,25.74 C137.490167,26.4146667 137.138167,27.0746667 136.5515,27.72 C135.964833,28.3653333 135.136167,28.9006667 134.0655,29.326 C132.994833,29.7513333 131.696833,29.964 130.1715,29.964 C128.2355,29.964 126.6955,29.5313333 125.5515,28.666 C124.4075,27.8006667 123.8355,26.5613333 123.8355,24.948 C123.8355,24.332 123.9235,23.672 124.0995,22.968 L124.8035,20.152 C124.920833,19.7706667 124.9795,19.3746667 124.9795,18.964 C124.9795,18.2893333 124.752167,17.8053333 124.2975,17.512 C123.842833,17.2186667 123.116833,17.072 122.1195,17.072 L120.4475,17.072 L118.4235,24.376 C118.364833,24.552 118.3355,24.772 118.3355,25.036 C118.3355,25.4466667 118.438167,25.7986667 118.6435,26.092 C118.848833,26.3853333 119.1275,26.6933333 119.4795,27.016 C119.7435,27.2213333 119.948833,27.4193333 120.0955,27.61 C120.242167,27.8006667 120.3155,27.9986667 120.3155,28.204 C120.3155,28.7026667 120.080833,29.0546667 119.6115,29.26 C119.142167,29.4653333 118.452833,29.568 117.5435,29.568 L106.4995,29.568 C105.736833,29.568 105.164833,29.4286667 104.7835,29.15 C104.402167,28.8713333 104.270167,28.4826667 104.3875,27.984 C104.446167,27.72 104.556167,27.5073333 104.7175,27.346 C104.878833,27.1846667 105.120833,27.0013333 105.4435,26.796 C105.942167,26.5026667 106.338167,26.1946667 106.6315,25.872 C106.924833,25.5493333 107.1595,25.0506667 107.3355,24.376 L112.7035,5.412 C112.820833,5.03066667 112.8795,4.664 112.8795,4.312 C112.8795,3.98933333 112.828167,3.718 112.7255,3.498 C112.622833,3.278 112.4835,3.02133333 112.3075,2.728 C112.0435,2.34666667 111.9115,2.03866667 111.9115,1.804 C111.9115,1.716 111.940833,1.55466667 111.9995,1.32 C112.116833,0.938666667 112.3735,0.667333333 112.7695,0.506 C113.1655,0.344666667 113.774167,0.264 114.5955,0.264 L129.3355,0.264 C131.3595,0.264 133.126833,0.572 134.6375,1.188 C136.148167,1.804 137.306833,2.64733333 138.1135,3.718 C138.920167,4.78866667 139.3235,5.99866667 139.3235,7.348 C139.3235,7.964 139.2355,8.58 139.0595,9.196 Z M127.7955,8.756 C127.942167,8.08133333 128.0155,7.568 128.0155,7.216 C128.0155,5.66133333 127.164833,4.884 125.4635,4.884 L123.6155,4.884 L121.6795,12.672 L123.5275,12.672 C124.6715,12.672 125.5735,12.3933333 126.2335,11.836 C126.8935,11.2786667 127.414167,10.252 127.7955,8.756 Z" id="Shape"></path>
            <path d="M18.383,38.922 C19.7883333,38.922 21.0128333,39.1338333 22.0565,39.5575 C23.1001667,39.9811667 23.8958333,40.5598333 24.4435,41.2935 C24.9911667,42.0271667 25.265,42.8693333 25.265,43.82 C25.265,44.3573333 25.1926667,44.8533333 25.048,45.308 C24.4486667,47.3953333 22.723,48.718 19.871,49.276 C20.863,49.5653333 21.6483333,50.0458333 22.227,50.7175 C22.8056667,51.3891667 23.095,52.221 23.095,53.213 C23.095,53.6676667 23.0123333,54.205 22.847,54.825 C22.3923333,56.437 21.4778333,57.6305 20.1035,58.4055 C18.7291667,59.1805 16.7813333,59.568 14.26,59.568 L1.364,59.568 C0.93,59.568 0.594166667,59.4956667 0.3565,59.351 C0.118833333,59.2063333 0,59.01 0,58.762 C0,58.638 0.031,58.5036667 0.093,58.359 C0.175666667,58.1316667 0.31,57.956 0.496,57.832 C0.682,57.708 0.795666667,57.6356667 0.837,57.615 C1.16766667,57.4083333 1.43633333,57.1965 1.643,56.9795 C1.84966667,56.7625 2.02533333,56.406 2.17,55.91 L5.952,42.549 C6.03466667,42.2803333 6.076,42.022 6.076,41.774 C6.076,41.5466667 6.03983333,41.3555 5.9675,41.2005 C5.89516667,41.0455 5.797,40.8646667 5.673,40.658 C5.487,40.3893333 5.394,40.1723333 5.394,40.007 C5.394,39.945 5.41466667,39.8313333 5.456,39.666 C5.53866667,39.3973333 5.7195,39.2061667 5.9985,39.0925 C6.2775,38.9788333 6.70633333,38.922 7.285,38.922 L18.383,38.922 Z M16.988,44.595 C17.1326667,44.1403333 17.205,43.7166667 17.205,43.324 C17.205,42.2493333 16.5953333,41.712 15.376,41.712 L13.981,41.712 L12.338,47.509 L13.702,47.509 C14.57,47.509 15.2571667,47.2971667 15.7635,46.8735 C16.2698333,46.4498333 16.678,45.6903333 16.988,44.595 Z M14.725,53.709 C14.8696667,53.213 14.942,52.7583333 14.942,52.345 C14.942,51.229 14.3013333,50.671 13.02,50.671 L11.47,50.671 L9.703,56.778 L11.284,56.778 C12.1726667,56.778 12.8856667,56.5558333 13.423,56.1115 C13.9603333,55.6671667 14.3943333,54.8663333 14.725,53.709 Z" id="Shape"></path>
            <path d="M44.02,38.922 C44.7846667,38.922 45.3788333,39.0873333 45.8025,39.418 C46.2261667,39.7486667 46.438,40.2033333 46.438,40.782 C46.438,41.0713333 46.3966667,41.3503333 46.314,41.619 L45.508,44.502 C45.3633333,45.06 45.1515,45.4475 44.8725,45.6645 C44.5935,45.8815 44.1956667,45.99 43.679,45.99 C43.183,45.99 42.7955,45.8815 42.5165,45.6645 C42.2375,45.4475 42.0256667,45.091 41.881,44.595 L41.385,42.828 C41.2816667,42.456 41.1576667,42.208 41.013,42.084 C40.8683333,41.96 40.5893333,41.898 40.176,41.898 L36.921,41.898 L35.371,47.416 L36.735,47.416 C36.8796667,47.416 37.076,47.3126667 37.324,47.106 L38.378,46.176 C38.688,45.9073333 38.9566667,45.711 39.184,45.587 C39.4113333,45.463 39.6903333,45.401 40.021,45.401 C40.393,45.401 40.6978333,45.4991667 40.9355,45.6955 C41.1731667,45.8918333 41.292,46.145 41.292,46.455 C41.292,46.5376667 41.2713333,46.6616667 41.23,46.827 L39.959,51.136 C39.835,51.5906667 39.6231667,51.9265 39.3235,52.1435 C39.0238333,52.3605 38.6983333,52.469 38.347,52.469 C37.7683333,52.469 37.3343333,52.1693333 37.045,51.57 L36.518,50.485 C36.3733333,50.175 36.146,50.02 35.836,50.02 L34.627,50.02 L32.798,56.592 L35.526,56.592 C35.9186667,56.592 36.2648333,56.5145 36.5645,56.3595 C36.8641667,56.2045 37.1896667,55.9306667 37.541,55.538 L39.401,53.492 C39.7316667,53.1406667 40.0468333,52.8875 40.3465,52.7325 C40.6461667,52.5775 41.013,52.5 41.447,52.5 C41.9016667,52.5 42.2736667,52.6033333 42.563,52.81 C42.8523333,53.0166667 42.997,53.3266667 42.997,53.74 C42.997,53.9053333 42.966,54.1016667 42.904,54.329 L42.005,57.46 C41.7776667,58.2453333 41.447,58.793 41.013,59.103 C40.579,59.413 39.9486667,59.568 39.122,59.568 L24.335,59.568 C23.901,59.568 23.5651667,59.4956667 23.3275,59.351 C23.0898333,59.2063333 22.971,59.01 22.971,58.762 C22.971,58.638 23.002,58.5036667 23.064,58.359 C23.1466667,58.1316667 23.281,57.956 23.467,57.832 C23.653,57.708 23.7666667,57.6356667 23.808,57.615 C24.1386667,57.4083333 24.4073333,57.1965 24.614,56.9795 C24.8206667,56.7625 24.9963333,56.406 25.141,55.91 L28.954,42.549 C29.0366667,42.2803333 29.078,42.0323333 29.078,41.805 C29.078,41.557 29.0418333,41.3503333 28.9695,41.185 C28.8971667,41.0196667 28.7886667,40.844 28.644,40.658 C28.458,40.3893333 28.365,40.1723333 28.365,40.007 C28.365,39.945 28.3856667,39.8313333 28.427,39.666 C28.5096667,39.3973333 28.6956667,39.2061667 28.985,39.0925 C29.2743333,38.9788333 29.698,38.922 30.256,38.922 L44.02,38.922 Z" id="Path"></path>
            <path d="M63.209,55.91 C63.1263333,56.1786667 63.085,56.4473333 63.085,56.716 C63.085,56.9433333 63.116,57.1345 63.178,57.2895 C63.24,57.4445 63.3071667,57.5685 63.3795,57.6615 C63.4518333,57.7545 63.4983333,57.8216667 63.519,57.863 C63.7256667,58.0696667 63.829,58.2763333 63.829,58.483 C63.829,58.5243333 63.8083333,58.6276667 63.767,58.793 C63.6843333,59.0823333 63.5035,59.2838333 63.2245,59.3975 C62.9455,59.5111667 62.5166667,59.568 61.938,59.568 L54.591,59.568 C54.157,59.568 53.8211667,59.4956667 53.5835,59.351 C53.3458333,59.2063333 53.227,59.01 53.227,58.762 C53.227,58.638 53.258,58.5036667 53.32,58.359 C53.382,58.1936667 53.4698333,58.0645 53.5835,57.9715 C53.6971667,57.8785 53.8573333,57.77 54.064,57.646 C54.3946667,57.46 54.6633333,57.2533333 54.87,57.026 C55.0766667,56.7986667 55.2523333,56.4266667 55.397,55.91 L56.203,53.244 L51.367,53.244 L50.53,55.011 C50.1786667,55.7756667 50.003,56.375 50.003,56.809 C50.003,57.057 50.0443333,57.2585 50.127,57.4135 C50.2096667,57.5685 50.3336667,57.7286667 50.499,57.894 C50.6436667,58.0593333 50.7418333,58.1988333 50.7935,58.3125 C50.8451667,58.4261667 50.8503333,58.576 50.809,58.762 C50.7263333,59.072 50.5558333,59.2838333 50.2975,59.3975 C50.0391667,59.5111667 49.631,59.568 49.073,59.568 L44.454,59.568 C43.9786667,59.568 43.617,59.4801667 43.369,59.3045 C43.121,59.1288333 42.997,58.8963333 42.997,58.607 C42.997,58.2763333 43.1158333,58.0128333 43.3535,57.8165 C43.5911667,57.6201667 43.9476667,57.4083333 44.423,57.181 C45.043,56.871 45.539,56.5661667 45.911,56.2665 C46.283,55.9668333 46.6033333,55.5483333 46.872,55.011 L52.39,43.572 C53.2373333,41.7946667 54.2345,40.5081667 55.3815,39.7125 C56.5285,38.9168333 58.0423333,38.519 59.923,38.519 C62.031,38.519 63.6636667,38.9478333 64.821,39.8055 C65.9783333,40.6631667 66.557,41.8566667 66.557,43.386 C66.557,44.0266667 66.4536667,44.688 66.247,45.37 L63.209,55.91 Z M57.133,50.144 L58.776,44.688 C58.8586667,44.44 58.9,44.1816667 58.9,43.913 C58.9,43.5203333 58.7915,43.2258333 58.5745,43.0295 C58.3575,42.8331667 58.0526667,42.735 57.66,42.735 C57.164,42.735 56.7403333,42.8796667 56.389,43.169 C56.0376667,43.4583333 55.6863333,43.975 55.335,44.719 L52.793,50.144 L57.133,50.144 Z" id="Shape"></path>
            <path d="M88.288,38.798 C89.156,38.798 89.8793333,39.077 90.458,39.635 C91.0366667,40.193 91.326,40.9473333 91.326,41.898 C91.326,42.9726667 91.0056667,43.8406667 90.365,44.502 C89.7243333,45.1633333 88.9596667,45.494 88.071,45.494 C87.4923333,45.494 86.9963333,45.3906667 86.583,45.184 C86.1696667,44.9773333 85.777,44.6466667 85.405,44.192 L82.739,46.424 L85.746,55.321 C85.932,55.8376667 86.1335,56.251 86.3505,56.561 C86.5675,56.871 86.831,57.181 87.141,57.491 C87.3683333,57.7183333 87.5285,57.8991667 87.6215,58.0335 C87.7145,58.1678333 87.761,58.328 87.761,58.514 C87.761,58.8446667 87.6111667,59.103 87.3115,59.289 C87.0118333,59.475 86.49,59.568 85.746,59.568 L81.685,59.568 C80.6723333,59.568 79.9231667,59.3458333 79.4375,58.9015 C78.9518333,58.4571667 78.554,57.7183333 78.244,56.685 L76.694,51.477 L75.795,52.221 L74.772,55.91 C74.6893333,56.1786667 74.648,56.437 74.648,56.685 C74.648,56.933 74.6841667,57.1396667 74.7565,57.305 C74.8288333,57.4703333 74.9373333,57.646 75.082,57.832 C75.268,58.1006667 75.361,58.3176667 75.361,58.483 C75.361,58.5243333 75.3403333,58.6276667 75.299,58.793 C75.2163333,59.0823333 75.0303333,59.2838333 74.741,59.3975 C74.4516667,59.5111667 74.0176667,59.568 73.439,59.568 L66.154,59.568 C65.72,59.568 65.3841667,59.4956667 65.1465,59.351 C64.9088333,59.2063333 64.79,59.01 64.79,58.762 C64.79,58.638 64.821,58.5036667 64.883,58.359 C64.9656667,58.1316667 65.1,57.956 65.286,57.832 C65.472,57.708 65.5856667,57.6356667 65.627,57.615 C65.9576667,57.4083333 66.2263333,57.1965 66.433,56.9795 C66.6396667,56.7625 66.8153333,56.406 66.96,55.91 L70.742,42.549 C70.8246667,42.2803333 70.866,42.022 70.866,41.774 C70.866,41.5466667 70.8298333,41.3555 70.7575,41.2005 C70.6851667,41.0455 70.587,40.8646667 70.463,40.658 C70.277,40.3893333 70.184,40.1723333 70.184,40.007 C70.184,39.945 70.2046667,39.8313333 70.246,39.666 C70.3286667,39.3973333 70.5095,39.2061667 70.7885,39.0925 C71.0675,38.9788333 71.4963333,38.922 72.075,38.922 L79.36,38.922 C79.794,38.922 80.1298333,38.9891667 80.3675,39.1235 C80.6051667,39.2578333 80.724,39.449 80.724,39.697 C80.724,39.8003333 80.693,39.9346667 80.631,40.1 C80.569,40.2446667 80.4811667,40.3738333 80.3675,40.4875 C80.2538333,40.6011667 80.1505,40.6838333 80.0575,40.7355 C79.9645,40.7871667 79.8973333,40.8336667 79.856,40.875 C79.5253333,41.061 79.2566667,41.2676667 79.05,41.495 C78.8433333,41.7223333 78.6676667,42.0736667 78.523,42.549 L77.221,47.168 L85.436,40.069 C85.9733333,39.6143333 86.459,39.2888333 86.893,39.0925 C87.327,38.8961667 87.792,38.798 88.288,38.798 Z" id="Path"></path>
            <path d="M103.85,38.457 C106.454,38.457 108.489667,39.0718333 109.957,40.3015 C111.424333,41.5311667 112.158,43.3033333 112.158,45.618 C112.158,46.7133333 111.992667,47.8913333 111.662,49.152 C111.042,51.4666667 110.081,53.43 108.779,55.042 C107.477,56.654 105.927,57.8733333 104.129,58.7 C102.331,59.5266667 100.378,59.94 98.27,59.94 C95.6866667,59.94 93.6613333,59.3251667 92.194,58.0955 C90.7266667,56.8658333 89.993,55.0936667 89.993,52.779 C89.993,51.725 90.1686667,50.516 90.52,49.152 C91.1193333,46.858 92.0648333,44.9101667 93.3565,43.3085 C94.6481667,41.7068333 96.1878333,40.4978333 97.9755,39.6815 C99.7631667,38.8651667 101.721333,38.457 103.85,38.457 Z M103.292,41.495 C102.672,41.495 102.114,41.743 101.618,42.239 C101.122,42.735 100.631167,43.5461667 100.1455,44.6725 C99.6598333,45.7988333 99.138,47.3643333 98.58,49.369 C97.7533333,52.2623333 97.34,54.2566667 97.34,55.352 C97.34,55.9926667 97.4536667,56.4576667 97.681,56.747 C97.9083333,57.0363333 98.27,57.181 98.766,57.181 C99.386,57.181 99.944,56.9278333 100.44,56.4215 C100.936,55.9151667 101.421667,55.104 101.897,53.988 C102.372333,52.872 102.899333,51.3323333 103.478,49.369 C104.284,46.517 104.687,44.5123333 104.687,43.355 C104.687,42.6936667 104.573333,42.2183333 104.346,41.929 C104.118667,41.6396667 103.767333,41.495 103.292,41.495 Z" id="Shape"></path>
            <path d="M134.385,38.922 C135.232333,38.922 135.656,39.1906667 135.656,39.728 C135.656,39.8726667 135.645667,39.976 135.625,40.038 C135.563,40.2446667 135.47,40.4048333 135.346,40.5185 C135.222,40.6321667 135.046333,40.7613333 134.819,40.906 C134.509,41.092 134.250667,41.2986667 134.044,41.526 C133.837333,41.7533333 133.661667,42.1046667 133.517,42.58 L129.673,56.344 C129.321667,57.584 128.8825,58.452 128.3555,58.948 C127.8285,59.444 127.1,59.692 126.17,59.692 C125.343333,59.692 124.656167,59.4491667 124.1085,58.9635 C123.560833,58.4778333 123.049333,57.7286667 122.574,56.716 L117.893,46.858 L115.289,55.91 C115.227,56.1786667 115.196,56.4163333 115.196,56.623 C115.196,56.8916667 115.2425,57.1138333 115.3355,57.2895 C115.4285,57.4651667 115.557667,57.646 115.723,57.832 C115.950333,58.1006667 116.064,58.328 116.064,58.514 C116.064,58.638 116.053667,58.731 116.033,58.793 C115.950333,59.0823333 115.764333,59.2838333 115.475,59.3975 C115.185667,59.5111667 114.751667,59.568 114.173,59.568 L110.794,59.568 C109.946667,59.568 109.523,59.2993333 109.523,58.762 C109.523,58.6173333 109.533333,58.514 109.554,58.452 C109.616,58.2453333 109.709,58.0851667 109.833,57.9715 C109.957,57.8578333 110.132667,57.7286667 110.36,57.584 C110.67,57.398 110.928333,57.1913333 111.135,56.964 C111.341667,56.7366667 111.517333,56.3853333 111.662,55.91 L115.599,41.991 L115.103,40.968 C114.896333,40.5546667 114.793,40.193 114.793,39.883 C114.793,39.2423333 115.206333,38.922 116.033,38.922 L120.621,38.922 C121.282333,38.922 121.7835,39.0718333 122.1245,39.3715 C122.4655,39.6711667 122.832333,40.2033333 123.225,40.968 L127.751,50.051 L129.89,42.58 C129.952,42.2906667 129.983,42.053 129.983,41.867 C129.983,41.5983333 129.9365,41.3761667 129.8435,41.2005 C129.7505,41.0248333 129.621333,40.844 129.456,40.658 C129.228667,40.3893333 129.115,40.162 129.115,39.976 C129.115,39.852 129.125333,39.759 129.146,39.697 C129.228667,39.4076667 129.414667,39.2061667 129.704,39.0925 C129.993333,38.9788333 130.427333,38.922 131.006,38.922 L134.385,38.922 Z" id="Path"></path>
        </g>
    </g>
</svg>